# AST/ASF file generated using VICON BodyLanguage
# -----------------------------------------------
:version 1.10
:name VICON
:units
  mass 1.0
  length 0.45
  angle deg
:documentation
   .ast/.asf automatically generated from VICON data using
   VICON BodyBuilder and BodyLanguage model FoxedUp or BRILLIANT.MOD
:root
   order TX TY TZ RX RY RZ
   axis XYZ
   position 0 0 0  
   orientation 0 -0 0 
:bonedata
  begin
     id 1 
     name lhipjoint
     direction 0.515797 -0.759363 0.396637 
     length 2.47888 
     axis 0 -0 0  XYZ
  end
  begin
     id 2 
     name lfemur
     direction 0.34202 -0.939693 0  
     length 6.81885  
     axis 0 -0 20  XYZ
    dof rx ry rz
    limits (-160.0 20.0)
           (-70.0 70.0)
           (-60.0 70.0)
  end
  begin
     id 3 
     name ltibia
     direction 0.342037 -0.939687 0   
     length 7.89258   
     axis 0 -0 20   XYZ
    dof rx
    limits (-10.0 170.0)
  end
  begin
     id 4 
     name lfoot
     direction 0.173497 -0.476678 0.861787   
     length 2.51543   
     axis -90 -1.13533e-015 20   XYZ
    dof rx rz
    limits (-45.0 90.0)
           (-70.0 20.0)
  end
  begin
     id 5 
     name ltoes
     direction 1.53564e-011 -4.21897e-011 1   
     length 1.21388   
     axis -90 -1.13533e-015 20   XYZ
    dof rx
    limits (-90.0 20.0)
  end
  begin
     id 6 
     name rhipjoint
     direction -0.489454 -0.772941 0.403729   
     length 2.43534  
     axis 0 -0 0  XYZ 
  end
  begin
     id 7 
     name rfemur
     direction -0.34202 -0.939693 0   
     length 7.10357   
     axis 0 -0 -20   XYZ
    dof rx ry rz
    limits (-160.0 20.0)
           (-70.0 70.0)
           (-70.0 60.0)
  end
  begin
     id 8 
     name rtibia
     direction -0.34202 -0.939693 0   
     length 9.16127   
     axis 0 -0 -20   XYZ
    dof rx
    limits (-10.0 170.0)
 end
 begin
     id 9 
     name rfoot
     direction -0.270974 -0.748671 0.605033   
     length 1.74894  
     axis -90 1.13533e-015 -20   XYZ
    dof rx rz
    limits (-45.0 90.0)
           (-20.0 70.0)
  end
  begin
     id 10 
     name rtoes
     direction -1.53557e-011 -4.21759e-011 1   
     length 0.787585   
     axis -90 1.13533e-015 -20   XYZ
    dof rx
    limits (-90.0 20.0)
  end
  begin
     id 11 
     name lowerback
     direction -0.0140249 0.999561 0.0260968   
     length 2.16963   
     axis 0 -0 0   XYZ
    dof rx ry rz
    limits (-20.0 45.0)
           (-30.0 30.0)
           (-30.0 30.0)
  end
  begin
     id 12 
     name upperback
     direction 0.00860018 0.999959 -0.002711   
     length 2.1726   
     axis 0 -0 0   XYZ
    dof rx ry rz
    limits (-20.0 45.0)
           (-30.0 30.0)
           (-30.0 30.0)
  end
  begin
     id 13 
     name thorax
     direction 0.015211 0.999782 -0.0143191   
     length 2.17061   
     axis 0 -0 0   XYZ
    dof rx ry rz
    limits (-20.0 45.0)
           (-30.0 30.0)
           (-30.0 30.0)
  end
  begin
     id 14 
     name lowerneck
     direction -0.0140143 0.999447 0.030145   
     length 2.26749   
     axis 0 -0 0   XYZ
    dof rx ry rz
    limits (-20.0 45.0)
           (-30.0 30.0)
           (-30.0 30.0)
  end
  begin
     id 15 
     name upperneck
     direction 0.118062 0.961438 -0.248392   
     length 2.22728   
     axis 0 -0 0   XYZ
    dof rx ry rz
    limits (-20.0 45.0)
           (-30.0 30.0)
           (-30.0 30.0)
  end
  begin
     id 16
     name head
     direction 0.0431885 0.9954 -0.085514  
     length 2.28786  
     axis 0 -0 0   XYZ
    dof rx ry rz
    limits (-20.0 45.0)
           (-30.0 30.0)
           (-30.0 30.0)
  end
  begin
     id 17 
     name lclavicle
     direction 0.912126 0.409548 0.0172323  
     length 4.31571  
     axis 0 -0 0   XYZ
    dof ry rz
    limits (-20.0 10.0)
           (0.0 20.0)
  end
  begin
     id 18 
     name lhumerus
     direction 1 -4.48977e-011 1.93091e-027   
     length 5.13658   
     axis 180 -30 -90   XYZ
    dof rx ry rz
    limits (-60.0 90.0)
           (-90.0 90.0)
           (-90.0 90.0)
  end
  begin
     id 19
     name lradius
     direction 1 -4.48916e-011 6.84018e-027   
     length 3.22473   
     axis 180 -30 -90   XYZ
    dof rx
    limits (-10.0 170.0)
  end
  begin
     id 20
     name lwrist
     direction 1 -4.48987e-011 7.01981e-027   
     length 1.61236   
     axis -4.37994e-015 90 90   XYZ
    dof ry
    limits (-180.0 0.0)
 end
  begin
     id 21 
     name lhand
     direction 1 -4.49037e-011 1.40335e-026   
     length 0.936406   
     axis -8.96029e-015 90 90   XYZ
    dof rx rz
    limits (-90.0 90.0)
           (-45.0 45.0)
  end
  begin
     id 22 
     name lfingers
     direction 1 -4.48886e-011 2.8104e-026   
     length 0.754955   
     axis -1.79203e-014 90 90   XYZ
    dof rx
    limits (0.0 90.0)
  end
  begin
     id 23
     name lthumb
     direction 0.707107 -6.34937e-011 0.707107   
     length 1.08397   
     axis -90 45 -4.48555e-014   XYZ
    dof rx rz
    limits (-45.0 45.0)
           (-45.0 45.0)
  end
  begin
     id 24 
     name rclavicle
     direction -0.947962 0.317997 0.0156638   
     length 4.86918  
     axis 0 -0 0   XYZ 
    dof ry rz
    limits (-10.0 20.0)
           (-20.0 0.0)
  end
  begin
     id 25 
     name rhumerus
     direction -1 -4.48951e-011 2.80534e-018  
     length 5.60911   
     axis 180 30 90   XYZ
    dof rx ry rz
    limits (-90.0 60.0)
           (-90.0 90.0)
           (-90.0 90.0)
  end
  begin
     id 26 
     name rradius
     direction -1 -4.4898e-011 2.11315e-027   
     length 3.38704   
     axis 180 30 90   XYZ
    dof rx
    limits (-10.0 170.0)
  end
  begin
     id 27 
     name rwrist
     direction -1 -4.48933e-011 7.02314e-027   
     length 1.69352   
     axis -4.37994e-015 -90 -90   XYZ
    dof ry
    limits (-180.0 0.0)
  end
  begin
     id 28
     name rhand
     direction -1 -4.48937e-011 1.40458e-026   
     length 0.755878   
     axis -8.96029e-015 -90 -90   XYZ
    dof rx rz
    limits (-90.0 90.0)
           (-45.0 45.0)
  end
  begin
     id 29
     name rfingers
     direction -1 -4.4901e-011 2.80737e-026   
     length 0.609409   
     axis -1.79203e-014 -90 -90   XYZ
    dof rx
    limits (0.0 90.0)
  end
  begin
     id 30
     name rthumb
     direction -0.707107 -6.34968e-011 0.707107   
     length 0.874992   
     axis -90 -45 4.48555e-014   XYZ
    dof rx rz
    limits (-45.0 45.0)
           (-45.0 45.0)
  end
:hierarchy
  begin
    root lhipjoint rhipjoint lowerback
    lhipjoint lfemur
    lfemur ltibia
    ltibia lfoot
    lfoot ltoes
    rhipjoint rfemur
    rfemur rtibia
    rtibia rfoot
    rfoot rtoes
    lowerback upperback
    upperback thorax
    thorax lowerneck lclavicle rclavicle
    lowerneck upperneck
    upperneck head
    lclavicle lhumerus
    lhumerus lradius
    lradius lwrist
    lwrist lhand lthumb
    lhand lfingers
    rclavicle rhumerus
    rhumerus rradius
    rradius rwrist
    rwrist rhand rthumb
    rhand rfingers
  end

#!OML:ASF C:\ViconDB\ViconDB\414\Spring2016\041811\Spring2016.ASF
:FULLY-SPECIFIED
:DEGREES
106
root 10.7453 17.7236 7.22225 -176.177 -12.0279 -178.352
lowerback -1.34177 -0.378432 -0.907906
upperback -0.186676 -0.511383 1.29277
thorax 0.580567 -0.264 1.82363
lowerneck -12.2661 -0.904435 -7.23917
upperneck 22.4986 -4.18504 13.4788
head 9.50886 -1.63899 5.38657
rclavicle -4.7025e-015 9.64106e-015
rhumerus -82.1453 27.3485 -110.14
rradius 90.6402
rwrist 36.3474
rhand -46.0264 2.46361
rfingers 7.12502
rthumb -18.7711 -26.6507
lclavicle -4.7025e-015 9.64106e-015
lhumerus -89.5674 -40.9158 125.465
lradius 72.2818
lwrist -25.7831
lhand -47.9236 1.21682
lfingers 7.12502
lthumb -20.595 30.1443
rfemur 224.892 52.1217 -122.304
rtibia 24.2101
rfoot -76.493 -52.2133
rtoes -21.6764
lfemur 10.0078 -8.60067 -20.8925
ltibia 13.5397
lfoot -24.2769 -2.84575
ltoes -15.9055
107
root 10.7347 17.6965 7.10942 -176.084 -11.9162 -178.616
lowerback -1.61902 -0.349373 -1.28367
upperback -0.123982 -0.468612 1.46671
thorax 0.80296 -0.247034 2.21235
lowerneck -12.2823 -1.14749 -7.84574
upperneck 22.4625 -4.37739 13.5194
head 9.53414 -1.76756 5.48704
rclavicle -8.36759e-015 -5.76476e-015
rhumerus -82.1573 27.6219 -109.816
rradius 90.783
rwrist 36.3256
rhand -45.9165 2.50781
rfingers 7.12502
rthumb -18.6654 -26.6167
lclavicle -8.36759e-015 -5.76476e-015
lhumerus -89.2885 -40.8957 125.604
lradius 72.291
lwrist -25.6593
lhand -47.7837 1.46128
lfingers 7.12502
lthumb -20.4606 30.4032
rfemur 222.875 51.0763 -124.933
rtibia 24.4405
rfoot -73.5908 -53.1349
rtoes -21.4593
lfemur 10.865 -8.72851 -21.2996
ltibia 12.7088
lfoot -24.1886 -2.43842
ltoes -16.0483
108
root 10.7247 17.6688 6.99337 -176.028 -11.8963 -178.846
lowerback -1.74448 -0.369697 -1.43562
upperback -0.154661 -0.491034 1.44611
thorax 0.844019 -0.258651 2.27545
lowerneck -12.2263 -1.33187 -8.22858
upperneck 22.4903 -4.6229 13.7084
head 9.57577 -1.90255 5.59568
rclavicle 2.06736e-014 2.64384e-014
rhumerus -82.2278 27.6248 -109.857
rradius 90.9059
rwrist 36.2581
rhand -45.9117 2.48192
rfingers 7.12502
rthumb -18.6608 -26.643
lclavicle 2.06736e-014 2.64384e-014
lhumerus -89.2397 -40.7339 125.498
lradius 72.383
lwrist -25.6236
lhand -47.7279 1.50571
lfingers 7.12502
lthumb -20.407 30.4534
rfemur 220.864 50.098 -127.509
rtibia 24.7323
rfoot -70.486 -53.7048
rtoes -21.3268
lfemur 11.7833 -8.83519 -21.6321
ltibia 11.8189
lfoot -24.0613 -2.25266
ltoes -16.232
109
root 10.7139 17.6405 6.8726 -176.032 -11.8117 -179.003
lowerback -1.88744 -0.371112 -1.50938
upperback -0.145477 -0.490471 1.45867
thorax 0.934263 -0.259759 2.32898
lowerneck -12.0902 -1.50225 -8.24388
upperneck 22.4377 -4.79368 13.4517
head 9.54771 -2.01088 5.48171
rclavicle -2.03754e-014 1.11319e-014
rhumerus -82.2847 27.7462 -109.864
rradius 91.0323
rwrist 36.2765
rhand -45.7357 2.43298
rfingers 7.12502
rthumb -18.4914 -26.7081
lclavicle -2.03754e-014 1.11319e-014
lhumerus -89.0734 -40.5659 125.37
lradius 72.3261
lwrist -25.5136
lhand -47.583 1.41616
lfingers 7.12502
lthumb -20.2677 30.3787
rfemur 218.548 48.9748 -130.256
rtibia 25.0876
rfoot -67.2152 -54.4011
rtoes -21.5292
lfemur 12.785 -8.9293 -21.9121
ltibia 10.9232
lfoot -23.9798 -2.01068
ltoes -16.4051
110
root 10.7114 17.6108 6.75251 -176.049 -11.8312 -178.955
lowerback -1.96105 -0.392294 -1.43999
upperback -0.171525 -0.522196 1.52704
thorax 0.95048 -0.276291 2.35898
lowerneck -12.0725 -1.682 -8.63968
upperneck 22.507 -5.04216 13.6611
head 9.6145 -2.14567 5.60107
rclavicle 3.24889e-014 9.14409e-015
rhumerus -82.3418 27.7953 -109.898
rradius 91.1547
rwrist 36.2983
rhand -45.7994 2.13387
rfingers 7.12502
rthumb -18.5528 -27.0014
lclavicle 3.24889e-014 9.14409e-015
lhumerus -89.0956 -40.5481 125.366
lradius 72.3406
lwrist -25.4406
lhand -47.6183 1.37161
lfingers 7.12502
lthumb -20.3016 30.3305
rfemur 216.519 47.905 -132.4
rtibia 25.4564
rfoot -64.1099 -55.154
rtoes -21.4581
lfemur 13.6825 -8.86462 -21.8112
ltibia 10.0715
lfoot -23.7963 -2.13817
ltoes -16.4711
111
root 10.7056 17.5774 6.62802 -176.053 -11.7898 -179.008
lowerback -2.08793 -0.401632 -1.31699
upperback -0.182897 -0.535637 1.47132
thorax 1.00897 -0.28278 2.23133
lowerneck -11.8561 -1.85217 -8.60847
upperneck 22.3869 -5.27418 13.5611
head 9.55829 -2.27153 5.52547
rclavicle -4.37326e-015 8.15017e-015
rhumerus -82.314 27.6649 -109.973
rradius 91.267
rwrist 36.0415
rhand -45.7185 2.65424
rfingers 7.12502
rthumb -18.4749 -26.4884
lclavicle -4.37326e-015 8.15017e-015
lhumerus -89.2599 -40.5242 125.389
lradius 72.3696
lwrist -25.2541
lhand -47.5708 1.3428
lfingers 7.12502
lthumb -20.256 30.3066
rfemur 214.417 46.7243 -134.704
rtibia 25.8601
rfoot -60.7826 -55.9613
rtoes -20.6169
lfemur 14.5854 -8.91262 -21.902
ltibia 9.31102
lfoot -23.6729 -2.0458
ltoes -16.8019
112
root 10.7016 17.5451 6.49885 -175.944 -11.8217 -178.995
lowerback -2.30134 -0.444663 -1.2499
upperback -0.25526 -0.596194 1.52386
thorax 1.05721 -0.313901 2.24449
lowerneck -11.6981 -2.00764 -8.57928
upperneck 22.3529 -5.43411 13.2729
head 9.52844 -2.37588 5.39432
rclavicle 1.36664e-014 7.95139e-015
rhumerus -82.4104 27.6794 -110.032
rradius 91.4319
rwrist 35.9666
rhand -45.5045 2.33329
rfingers 7.12502
rthumb -18.269 -26.8288
lclavicle 1.36664e-014 7.95139e-015
lhumerus -89.2255 -40.4068 125.322
lradius 72.3229
lwrist -25.1769
lhand -47.4139 1.1505
lfingers 7.12502
lthumb -20.1051 30.1302
rfemur 212.851 45.7857 -136.29
rtibia 26.2214
rfoot -58.0689 -56.8163
rtoes -19.545
lfemur 15.1842 -9.04026 -21.8749
ltibia 8.87547
lfoot -23.7222 -2.05662
ltoes -16.7337
113
root 10.6894 17.5066 6.37015 -175.998 -11.7253 -179.015
lowerback -2.37052 -0.45767 -1.08657
upperback -0.248944 -0.619748 1.56583
thorax 1.10234 -0.326275 2.19445
lowerneck -11.6168 -2.16747 -9.01811
upperneck 22.3476 -5.62417 13.4463
head 9.55149 -2.4902 5.51248
rclavicle -2.8948e-015 -4.37326e-015
rhumerus -82.5538 27.8308 -110.015
rradius 91.6268
rwrist 36.0218
rhand -45.48 2.42564
rfingers 7.12502
rthumb -18.2455 -26.7387
lclavicle -2.8948e-015 -4.37326e-015
lhumerus -89.1409 -40.2673 125.457
lradius 72.2045
lwrist -24.9244
lhand -47.3853 1.51973
lfingers 7.12502
lthumb -20.0777 30.5023
rfemur 211.334 45.1816 -137.58
rtibia 26.6498
rfoot -56.2643 -57.7486
rtoes -18.5144
lfemur 15.9565 -9.02057 -21.9791
ltibia 8.5003
lfoot -23.7681 -2.02637
ltoes -16.9038
114
root 10.6897 17.4696 6.24182 -175.899 -11.6742 -179.01
lowerback -2.52256 -0.46602 -1.05634
upperback -0.313192 -0.633754 1.61151
thorax 1.12251 -0.33399 2.22302
lowerneck -11.5228 -2.30159 -9.17306
upperneck 22.385 -5.804 13.4337
head 9.57411 -2.59544 5.51435
rclavicle 1.06847e-015 -3.77691e-015
rhumerus -82.5133 27.7615 -109.948
rradius 91.7546
rwrist 35.9863
rhand -45.4897 2.14233
rfingers 7.12502
rthumb -18.2548 -27.0211
lclavicle 1.06847e-015 -3.77691e-015
lhumerus -89.2486 -40.2572 125.613
lradius 72.1883
lwrist -24.6224
lhand -47.4452 1.10107
lfingers 7.12502
lthumb -20.1353 30.0776
rfemur 209.652 44.0012 -139.196
rtibia 27.0774
rfoot -53.149 -58.4333
rtoes -17.5627
lfemur 16.3549 -9.07577 -21.9301
ltibia 8.39897
lfoot -23.8346 -2.08532
ltoes -17.0493
115
root 10.6883 17.4272 6.10566 -175.835 -11.6137 -179.237
lowerback -2.5775 -0.481889 -1.19249
upperback -0.396351 -0.650035 1.58118
thorax 1.06994 -0.341531 2.26778
lowerneck -11.3801 -2.42926 -9.20393
upperneck 22.4532 -5.96367 13.2402
head 9.58666 -2.69981 5.43147
rclavicle 9.19379e-016 -3.1408e-014
rhumerus -82.6554 27.7153 -109.966
rradius 91.9641
rwrist 36.0232
rhand -45.3783 1.99308
rfingers 7.12502
rthumb -18.1477 -27.1803
lclavicle 9.19379e-016 -3.1408e-014
lhumerus -89.3196 -40.1543 125.675
lradius 72.0839
lwrist -24.5833
lhand -47.5646 1.38098
lfingers 7.12502
lthumb -20.25 30.3454
rfemur 208.04 43.0713 -140.82
rtibia 27.5578
rfoot -50.5727 -59.0972
rtoes -16.1659
lfemur 16.7826 -9.1165 -22.1926
ltibia 8.54468
lfoot -24.0065 -2.14808
ltoes -17.3929
116
root 10.69 17.379 5.96269 -175.762 -11.502 -179.304
lowerback -2.81368 -0.503987 -1.2271
upperback -0.405207 -0.678877 1.60359
thorax 1.19523 -0.357798 2.30735
lowerneck -11.2765 -2.53446 -9.40125
upperneck 22.4281 -6.10587 13.314
head 9.58466 -2.78271 5.47518
rclavicle -4.88265e-015 -5.56597e-015
rhumerus -82.5914 27.6788 -109.941
rradius 92.058
rwrist 36
rhand -45.0263 2.11013
rfingers 7.12502
rthumb -17.8089 -27.0944
lclavicle -4.88265e-015 -5.56597e-015
lhumerus -89.3564 -40.1179 125.66
lradius 72.1238
lwrist -24.6382
lhand -47.5366 1.44854
lfingers 7.12502
lthumb -20.223 30.4158
rfemur 206.503 42.1454 -142.089
rtibia 28.0205
rfoot -48.0328 -60.3039
rtoes -14.5361
lfemur 17.0813 -9.10359 -22.27
ltibia 8.92185
lfoot -24.312 -2.11504
ltoes -17.915
117
root 10.6858 17.3303 5.82117 -175.66 -11.4364 -179.602
lowerback -2.94685 -0.520357 -1.39508
upperback -0.437665 -0.6941 1.58587
thorax 1.23903 -0.366212 2.3821
lowerneck -11.2783 -2.69773 -9.58587
upperneck 22.5365 -6.28643 13.182
head 9.64889 -2.89541 5.44059
rclavicle 3.71479e-015 6.75868e-015
rhumerus -82.5558 27.6842 -109.808
rradius 92.1963
rwrist 35.9821
rhand -44.9003 2.03258
rfingers 7.12502
rthumb -17.6877 -27.1829
lclavicle 3.71479e-015 6.75868e-015
lhumerus -89.3575 -40.072 125.796
lradius 72.0434
lwrist -24.4713
lhand -47.6716 1.7027
lfingers 7.12502
lthumb -20.3529 30.6562
rfemur 205.026 41.4007 -143.475
rtibia 28.5474
rfoot -46.0768 -61.5183
rtoes -14.2534
lfemur 17.3215 -9.14924 -22.5872
ltibia 9.3791
lfoot -24.5406 -2.28636
ltoes -18.1955
